<svg xmlns="http://www.w3.org/2000/svg" viewBox="0 0 2048 2048">
  <path fill="#18181b" fill-opacity=".9"  d="M671 2048h946l6-9 9-15 7-17 6-22 4-23 1-17v-22l-3-23-6-27-6-20-10-28-8-22-16-36-12-28-9-17-8-18-8-15-8-16-17-35-16-27-14-23-12-16-11-14-11-12-19-19-1-2v-8l3-14v-11l-4-20-8-24-8-16-11-16-9-12-1-5 12-22 3-10 6-3 22-5 22-8 16-8 12-7 17-12 14-11 10-9 11-9 11-11 7-8 11-13 11-16 6-8 2 1 1 6v29l-1 6v19l4 6 7 4h10l14-8 15-11 13-11 8-8 11-14 10-15 10-18 10-23 9-28 5-25 4-32v-30l-1-7v-19l5 1 14 4 16 2h25l13-2 18-5 16-8 13-9 8-9 3-7v-8l-4-7-18-10-16-9-13-10-11-11-11-14-9-14-9-16-10-23-11-33-6-25-8-38-8-48-5-40v-15l5-23 7-30 12-57 8-45 8-51 6-48 4-42 2-34 1-8v-91l-7-67-5-28-5-22-7-21-7-14-7-9-10-6-16-5h-26l-27 5-33 9-26 10-29 12-25 12-44 24-21 13-22 14-25 15-22 15-19 13-14 11-19 14-15 12-12 9-17 14-10 9-15 13-4 3-9-1-43-14-35-9-36-7-50-6-13-2-6-4-11-12-22-22-14-10-24-13-17-8-29-11-23-7-27-6-7-1h-18l-8 3-6 7-3 7v9l5 9 12 13 11 11 7 10 2 4v4l-30 2-28 3-30 5-32 7-32 9-24 8-5-1-12-12-7-8-10-9-14-11-10-10-14-11-14-12-14-11-16-13-17-13-18-14-16-11-10-7-21-14-22-14-25-15-23-13-24-11-27-10-25-7-4-1h-10l-14 4-10 5-12 12-9 15-8 19-11 37-6 26-7 38-6 45-3 33-3 46v68l2 27 2 30 5 45 6 34 12 50 12 36 8 20 5 8-1 5-12 21-16 32-15 36-11 30-12 40-6 27-3 17-4 30-1 4v20l2 15 4 29 6 20 10 19 8 10 11 9 9 1 7-6 4-8 10-32 5-12h4l1 16 3 22 5 19 6 16 12 23 13 18 4 6-1 6-8 26-7 19-8 17-12 18-9 12-10 11-8 7-10 9-4 8v10l2 5 4 2 17 8 15 4 17 2h21l21-3 23-7 17-9 4 1 14 23 14 18 11 12 2 1v2l4 2v2l3 1 7 8 12 11 14 11 18 14 17 12 15 9 17 10 6 4v2l-19 14-15 14-14 15-9 13-9 17-7 21-4 25-1 3v18l5 27-1 7-4 6-9 9-6 5-9 12-7 12-4 5-13 8-19 12-13 11-13 13-11 14-10 13-12 19-12 22-12 25-7 18-9 29-4 19-3 31v11l3 30 6 25 6 17 10 21 10 15 10 13 9 10 8 8 17 13 17 11 23 11 16 5 11 3v2h97l2-2 21-7 24-11 10-5h1v25Z"/>
  <path fill="#fef3c6" d="m1639 271 14-4h5l1 1 4 10 3 24v59l-3 39-5 35-6 32-10 42-12 43-10 30-8 19h-3l-2-3-10-16-18-27-13-18-13-17-10-13-12-14-9-11-7-7-7-8-13-13-8-7-9-9-8-7-10-9-2-4 12-13 7-8 7-7 8-7 8-8 10-9 13-12 11-9 10-9 28-22 18-14 16-11 17-10 16-8Z"/>
  <path fill="#fef3c6" fill-rule="evenodd" d="M1713 136h-14l-26 5-22 6-33 12-25 11-24 12-23 12-24 13-17 10-13 8-19 12-30 20-34 24-16 12-17 13-26 20-14 12-11 9-14 13-11 9-7 1-12-5-18-8-19-7-30-9-31-7-30-5-55-5-8-2-7-6-7-8-13-13-13-12-19-14-16-9-16-8-25-10-25-7-8-1v2l11 12 7 8 11 13 16 21 8 13 1 7-3 4h-99l-30 3-33 6-28 7-25 8-27 10-23 10-28 14-25 14-27 16-17 11-18 13-12 9-16 13-11 9-10 9-8 7-8 8-8 7-9 9-7 8-10 10-24 28-14 18-13 17-13 18-13 19-10 15-15 24-30 55-14 29-11 24-13 32-14 41-8 31-7 35-3 26v30l1 11 3 15 5 13h2l10-23 14-33 13-28 11-20 11-17 6-7 6-4h7l4 2 2 4v8l-8 27-6 25-5 35v28l2 18 6 22 8 20 9 16 11 15 9 11 11 10 14 10 17 9 10 3v-31l-1-7v-71l1-10 1-33 2-27 4-39 4-27 8-43 12-48 10-32 11-30 12-28 11-22 12-21 13-21 10-15 11-15 10-11 8-6 7 1 5 6v7l-1 4-4 8-21 32-14 25-12 26-6 16-4 8-1 6h2l4-5 16-16 9-11 9-10 12-14 13-15 9-11 11-12 7-8 17-17 2-4h2l1-2 11-11 8-7 15-15 13-12 10-9 11-9 10-10 4-6 8-21 10-23 8-14 12-17 7-7 6-4h7l4 1 1 4v12l-2 7-12 26-9 20-11 33-7 29-4 27v46l2 16 4 18 8 25 9 23 14 29 15 25 9 13 10 11 10 9 4-1 10-7 16-12 12-11 8-7 42-42 12-13 9-10 13-15 9-11 13-17 12-16 14-20 10-15 12-20 12-22 14-29 12-27 9-25 5-10 5-4 8-1 6 3 4 6 8 20 13 34 9 19 8 16 13 24 17 28 12 17 10 13 32 32 11 9 13 11 17 13 21 14 21 11 5 1v-6l-3-17-6-25-9-29-10-26-15-34-12-25-7-17-1-11 2-4 7-6h6l6 3 6 7 10 19 17 35 11 26 11 30 11 35 7 25 9 37 8 44 4 30 3 40v78l-2 29-3 23-5 31-7 29-8 27-9 25-13 27-10 18-17 29-1 4h24l26-4 20-5 18-6 16-7 18-10 15-10 14-10 14-12 15-16 10-13 10-16 10-19 12-29 10-36 4-6h7l3 2 4 8v31l-1 7-5 19-7 18-8 16-11 19-15 20-10 10-8 7-13 11-14 11-12 9-18 12-21 11-9 6-3 13-5 18-7 16-10 16-10 12-13 15-9 11-24 24 7 4 13 8 17 12 11 9 4 1 2-2 5-13 9-32 4-11 5-3h7l6 2 6 7 3 7 4 1 18-7 17-9 21-14 16-13 11-9 17-17 14-15 9-11 9-12 11-18 12-24 6-10 6-4 5-1 6 3 6 8 5 15 4 22v37l-1 13h2l11-9 11-12 9-12 7-11 9-19 10-27 5-20 4-28v-48l-6-42v-13l3-5 5-4h8l17 8 15 6 25 5h21l5-1 22-5 1-3-11-8-12-9-16-16-11-14-12-18-9-17-9-20-8-21-9-30-9-38-9-47-7-46-2-18v-13l2-15 8-34 11-53 12-59 8-49 4-30 5-47 4-64v-77l-3-41-4-30-7-35-6-20-6-12-7-7-8-3Zm-40 92h-15l-6 1-19 7-17 9-21 13-18 12-17 12-17 13-13 10-13 11-11 9-26 24-8 7-10 10-8 7-7 8-14 15-11 14-6 12-1 8 2 3 28 22 7 7 11 9 10 10 4 2v2l12 12 7 8 14 15 9 11 13 16 14 18 16 23 13 19 12 20 13 23 8 9 9 1 6-3 6-8 7-16 16-44 12-36 9-31 8-34 8-41 4-24 4-31 2-21v-83l-2-13-5-20-7-16-6-7-6-4Z"/>
  <path fill="#fef3c6" d="m398 116 12 1 19 5 26 10 25 12 22 12 21 13 18 12 18 13 19 14 13 10 21 16 14 11 16 13 10 8 13 11 11 9 15 13 10 9 8 7 9 9v3l-10 4-20 10-23 13-24 15-12 8-4 2-13-16-12-14-9-11-8-8-7-8-8-8-7-8-7-7-8-7-32-32-11-9-12-10-21-14-14-7-10-3h-10l-9 4-5 5-6 8-6 14-6 22-6 35-3 27-2 27v48l1 32 2 29 5 39 6 39 6 28 3 11-1 6-13 18-17 26-7 10h-2l-10-31-6-23-7-34-8-59-3-39-2-43v-54l3-47 2-24 5-41 5-30 8-35 5-18 6-18 8-16 7-10 7-6 2-1Zm30 1022 6 2 14 8 6 4-1 15v37l1 6v12l-6 5-15 7-17 5-13 3h-35l1-4 13-14 13-17 12-20 10-21 9-26 2-2Z"/>
  <path fill="#9ae600" d="m1332 1378 8 1 11 6 14 10 10 9 6 5 7 8 9 10 11 16 10 17 8 20 3 14 2 15-15-6-19-6-13-3-8-1-34-1-34-11-20-4h-31l-15 4-16 7-12 7-10 8-7 7-7 10-5 10-3 7-15 5-12 7-10 8-8 10-10 17-10 3-24 7-27 11-21 10-9 7-2 3 1 4 6 5h11l46-15 11-3h10l-2 5-9 10-10 14-8 18-4 15-1 7v16l5 19 6 11 7 9 6 7 12 9 13 7 1 22 3 14 6 15 7 12 8 11-1 6-1 9 5 20 6 11 9 12 7 7v8l-1 5v14l4 20 7 21 12 25 10 16 8 10 12 14 7 8 3 5H702v-17l2-26 17-17h2l1-3 7-6 7-8 9-10 12-16 9-15 8-16 7-16 6-18 6-25 3-19v-43l9-15 9-16 6-17 3-15v-14l-2-9 1-8 7-10 6-13 4-15 1-28 13-11 9-11 5-8 4 1 19 14 17 11 11 5 4 1h9l7-3 1-5-8-10-9-8-13-10-11-8-10-8-8-7-4-4-1-19-4-17-9-19-7-9-8-8-3-16-3-21 29 5 16 2 5 4 8 13 13 25 13 23 20 30 16 21 7 9 11 13 6 5 7-1 8-7 22-22 8-7 13-13 8-7 8-8 8-7 13-11 11-10 11-9 17-14 28-21 19-14 17-13 18-13 13-9 14-10 17-11 16-8 20-7 39-11 10-2Z"/>
  <path fill="#9ae600" d="m1382 1523 8 1 18 6 18 10 16 12 13 12 11 14 10 13 11 17 11 18 15 27 14 24 12 23 12 22 12 24 16 36 14 32 13 37 8 28 5 22 2 18v30l-3 22-7 26-9 21-9 15-11 13-2 2h-285v-2l-5-2-15-14-8-7-7-8-11-12-11-16-10-17-8-20-5-20v-2l7 1h8l4-2 1-2v-7l-6-10-15-13-7-7-9-13-8-17v-2l9 2 17 4 8 1h29l16-3 24-8 16-8 12-7 18-13 10-9 8-7 11-13 12-17 9-16 6-12 7-21 4-13 7-12 5 1 8 7 9 12 5 11 4 15v10l-4 23-7 21-8 16-9 16-10 14-12 14-5 6-8 7-17 13-21 12-19 8-24 6-17 4-7 4h-2l-2 6v7l8 2 14 2h13l19-3 17-5 21-9 14-8 12-8 16-13 14-14 11-14 10-15 12-23 8-23 4-19 2-17 1-16 6 1 14 7 17 13 9 9 6 5 9 11 12 16 9 16 11 23 4 5 4 2h8l8-7 1-2v-9l-6-16-8-16-10-16-7-9-11-14-9-10-9-9-9-7-15-11-14-8-24-12-6-9-8-11-7-8-11-9-8-4-6-2 1-28v-25l-3-26-6-25-5-13-7-11-13-16-3-4v-2Zm-826 78h4l5 10 5 22 5 20 8 16 9 12 12 12 19 14 15 10 16 9 16 8 19 7 23 5 13 1h16l16-2 21-7 15-8-1 8-5 13-7 14-16 24-8 13-3 8v5l4 3 11 2v24l-5 20-7 19-8 17-10 17-11 16-10 13-14 15-13 12-17 13-13 9-21 12-18 8-17 5-16 3-7 1h-32l-25-4-24-8-16-8-12-7-12-9-13-11-10-11-12-16-9-16-6-14-5-16-4-20-1-8v-30l3-23 6-25 5-16 10-25 11-23 12-20 13-18 11-13 6-7 8-7 12-9 3-2h3l4 32 5 19 6 15 10 18 12 16 9 11 9 9 14 11 13 10 21 13 23 11 15 5 17 4 13 2h21l16-3 10-4 4-5v-5l-1-3-30-3-26-6-24-8-15-6-20-11-17-12-11-9-10-9-9-11-14-21-8-16-5-13-3-13-1-8v-15l3-16 5-14 8-12 9-10Z"/>
  <path fill="#ffedd4" d="M688 1397h18l14 4 11 6 9 8 7 10v2l-28 11-21 11-13 9-10 10-2 4 1 8 7 6h7l12-7 14-9 21-10 22-8 10-2h13l13 4 11 7 7 7 6 10 3 9v5l-14 2-20 6-16 8-14 10-9 9-2 4v7l5 4 3 1h10l9-5 14-9 15-7 9-3 5-1h9l8 4 8 8 6 12 2 8v15l-4 17-5 12-6 11-4 1-8-11-3-2h-7l-2 3v24l2 15v16l-3 16-7 14-11 13-10 8-12 7-15 5-12 2h-25l-20-4-13-5-13-7-15-11-10-9-9-8-7-8-8-9-12-17-13-24-8-18-7-21-4-16-2-12-1-12v-21l2-16 6-17 9-16 10-13 12-13 12-11 15-11 13-8 16-7 9-3 10-2Zm66-814h2l-3 42-1 26-5-1-17-5-14-2h-20l2-4 12-13 7-7 7-8 11-11 8-7 8-8 3-2Z"/>
  <path fill="#ffedd4" fill-rule="evenodd" d="m1125 544 2 2 15 33 15 30 13 23 7 12v4l-24 1-25 5-19 7-11 7-8 9-1 8 5 10 6 1 14-5 19-8 17-4h31l15 3 11 4 9 7 9 9 8 7 14 12 13 11 13 10 18 13 24 15 26 15 20 11 2 5 5 44 4 49v59l-3 36-4 32-7 34-8 28-9 26-14 31-13 23-14 19-11 14-7 11-1 3v8l5 6 11 5 20 4h31l24-3 18-3h2l-3 9-5 12-8 12-10 14-9 11-9 10-7 8-11 11-17 13-17 12-22 14-22 13-27 15-21 11-34 15-27 11-6 4-3 3-1 3v7l3 7 7 7-3 3-12 8-28 21-16 13-10 8-14 12-11 9-10 10-8 7-14 14-7 8-7 7-7 8h-5l-7-8-13-18-12-17-14-24-12-23-4-8v-3l22-7 8-5 2-4-1-6-6-5-12-2-11-1-39-2-36-6-20-5-31-10-11-2-20-1-5-12-5-10-8-10-9-8-14-7-15-4-9-1h-19l-14 2-17 5-6 1-26-14-24-14-14-9-15-11-14-11-10-9-8-7-20-20-9-11-11-15-12-23-6-18-4-24v-19l2-5 1-1h23l8-4 4-5 1-3v-19l-3-22-2-24v-87l3-39 3-31 5-40 7-44 4-16 7-14 13-16 13-15 11-13 7-8 9-10 9-11 24-28 11-12 13-17 7-7 8-4 21-3h20l18 4 31 9 3 5 10 29 10 23 12 23 10 16 11 16 8 10 11 13 9 11 9 9 9 5 3 1h8l10-3 11-7 16-13 10-8 13-11 16-15 10-9 30-30 7-8 12-13 14-17 13-16 14-19 13-18 10-15 14-22 16-29 17-35 7-14 1-1Zm27 253h19l18 4 17 6 15 9 14 12 11 12 10 14 10 18 8 20 5 17 4 23 1 11v24l-3 26-5 21-6 18-8 18-8 14-10 14-13 14-11 9-14 10-16 8-21 7-6 1h-26l-19-5-16-8-11-7-10-8-10-10-11-15-9-16-8-19-6-20-4-24-1-9v-38l3-22 6-24 7-20 8-16 7-12 11-14 14-14 17-12 16-8 14-5 17-4Zm-462-1h24l16 4 16 7 12 7 14 12 8 8 11 15 9 16 7 19 6 25 2 14v52l-4 23-6 21-10 24-9 16-10 14-18 18-11 8-15 9-14 6-16 4h-21l-15-3-13-5-14-8-12-9-7-6-11-14-9-14-11-23-7-21-5-28v-44l3-21 6-23 8-21 11-21 10-14 9-11 14-13 13-9 14-7 15-5 10-2Zm242 362h41l15 2 15 4 10 4 9 7 8 9 7 14 5 21 1 8v47l-4 28-5 19-6 15-10 18-11 13-10 9-10 7-14 8-18 7-16 3h-15l-14-3-12-5-11-6-10-8-12-11-12-13-14-19-11-19-10-25-9-28-5-20-3-20v-14l3-12 5-8 9-8 15-7 20-6 26-5 31-4 22-2Zm259-406h-29l-18 3-19 6-15 7-18 11-7 8-1 6 6 10 5 1 26-12 20-7 22-4h14l11 2 22 6 14 7 13 8 14 11 12 12 10 13 10 15 12 25 7 20 6 23 5 32 1 23 2 14 2 2 7 1 5-3 4-9 2-17v-39l-1-8-3-19-5-19-9-24-8-17-9-16-10-14-9-11-9-8-13-10-21-13-18-8-15-5-15-3Zm-477 0h-24l-23 3-12 3-16 6-10 6-17 12-13 12-11 12-9 12-10 17-8 16-9 22-7 23-4 23v32l3 16 4 5h5l1-1 5-41 3-15 5-18 7-19 11-23 9-14 12-16 7-7 12-11 14-10 17-8 20-6h30l8 1 20 5 23 9 9 1 3-3 5-8v-8l-1-2-7-7-10-6-11-5-16-5-15-3Zm139 332h-11l-3 3v8l1 5 4 6h8l8-3 5-5v-6l-4-4-8-4Z"/>
  <path fill="#ffedd4" d="m1282 1505 19 4 19 7 21 11 14 10 10 10 8 13 7 14 5 16 3 17v40l-4 31-6 28-10 30-12 23-11 16-12 14-9 9-13 10-16 10-14 7-18 6-11 2h-33l-17-5-11-6-10-8-8-9-8-16-3-11-1-8v-21l3-19v-11l-5-8-10-5h-7l-1 4-1 23-5-1-10-10-6-9-3-7-2-10v-10l4-15 8-16 6-7 11-7 6-2h16l14 2 20 6 18 6h7l4-6v-7l-4-6-7-6-14-7-15-5-14-3-23-2 1-10 5-14 6-8 7-6 12-5 13-2h15l16 2 25 6 28 9h8l2-4 1-7-6-9-10-8-12-6-22-6-25-4 1-4 7-10 10-9 12-6 10-3 9-2h18Z"/>
  <path fill="#ffc9c9" d="m947 1183-13 2-17 5-17 8-12 8-11 9-10 10-9 13-8 15-4 14-1 7v14l4 18 8 20 8 13 11 13 8 7 12 9 15 7 17 5h21l12-4 12-6 12-11 8-9 9-15 8-16 7-21 3-17 1-10v-28l-2-18-6-18-6-10-8-6-15-5-18-3h-19Z"/>
  <path fill="#fef3c6" d="M1653 267h5l3 5 3 11 2 19v59l-3 39-5 35-7 36-9 38-10 36-8 26-8 21-4 9-4-1-7-12-22-33-13-18-14-18-11-14-11-13-12-14-9-9-7-8-13-13-8-7-9-9-10-8-4-4 2-4 14-15 11-12 16-15 17-16 11-9 11-10 14-11 15-12 13-10 15-11 19-12 14-8 15-6 8-2ZM444 256h6l16 9 21 16 10 9 8 7 13 12 7 6v2l4 2 7 8 15 16 7 8 13 14 9 12 10 13 6 8-1 3-11 7-12 10-9 7-13 11-10 8-13 12-11 11-8 7-10 10-7 8-7 7-7 8-12 14-9 11-12 14-3 1-5-27-5-34-3-22-3-53v-33l1-25 4-39 7-39 5-15 2-4Z"/>
  <path fill="#ffd230" d="m1156 827 4 2 4 8 8 31 7 26 7 17 8 12 6 7 14 10 19 9 20 8 3 3v6l-5 4-28 11-16 8-8 6-9 9-8 13-7 15-9 27-10 36-2 4-4-1-5-8-6-21-8-35-8-24-6-10-9-10-16-10-28-14-7-6 2-4 17-9 23-10 11-7 9-8 7-11 7-15 11-33 8-28 4-8Zm-459-6h3l6 18 12 47 6 16 9 14 5 6 14 10 32 16 6 5v4l-12 6-25 11-11 7-10 9-6 8-8 15-8 24-9 35-7 17-3 4-3-1-4-13-3-14-6-26-12-38-6-11-6-7-11-8-16-8-13-6-6-4-3-3 1-5 16-8 21-11 14-10 7-7 8-14 7-19 12-39 5-14 4-6Z"/>
  <path fill="#fff" d="M1163 780h14l23 5 12 4 16 8 13 9 14 12 11 11 13 18 9 16 8 17 10 30 5 24 3 21 1 23v22l-4 23-7 20-8 16-8 12-8 10-12 12-13 10-16 8-11 4-13 3-19 1 1-4 15-9 10-8 13-11 9-10 12-18 9-17 7-18 5-18 4-20 2-19v-24l-2-18-4-20-8-24-8-17-10-16-9-11-11-12-13-10-12-7-17-6-18-4h-19l-21 5-19 8-14 9h-2l-2-10-2-5 16-8 18-8 19-6 18-3Zm-487 2h30l16 3 15 4 20 8 7 3v7l-3 8-5-1-10-6-16-7-16-4h-24l-17 4-19 8-13 9-14 12-9 10-10 14-10 18-8 18-7 23-4 20-1 10v44l5 28 8 23 12 25 13 18 8 9 3 2v2l-4 1-16-9-11-7-14-13-9-13-8-15-6-19-6-29-2-17h3v-9l4-34 5-22 5-17 8-20 12-23 14-19 11-12 8-8 15-11 15-8 21-7 4-1Z"/>
  <path fill="#e7000b" fill-opacity=".5" d="m1274 1149 4 1 4 6v7l-6 16-8 16-8 12-5 5h-8l-4-5v-11l7-17 8-14 9-11 5-4 2-1Zm-657-17h8l3 4v9l-11 21-11 14-9 7-6 1-3-3-1-2v-9l8-16 7-12 9-10 6-4Zm47 7 6 1 4 5 1 6-4 10-7 12-8 10-7 7-4 2h-9l-2-3v-8l7-14 8-12 8-10 7-6Zm510 14 6 1 4 5-1 6-9 16-8 12-7 9-7 6h-5l-4-4v-11l7-13 8-11 9-10 7-6Zm52-1 7 1 3 4-1 8-6 12-8 12-9 12-8 8-8 1-3-3 1-8 9-17 8-12 10-13 5-5Zm-657-28h8l3 3-1 9-9 16-9 12-4 5-9 7h-7l-1-1v-11l8-16 10-14 7-8 4-2Z"/>
</svg>
