<svg xmlns="http://www.w3.org/2000/svg" xml:space="preserve" viewBox="150 142 727 732">
  <path fill="#3178c6" d="M877 182.9v533.2a41 41 0 0 1-40.9 40.9H302.9a41 41 0 0 1-40.9-40.9V182.9a41 41 0 0 1 40.9-40.9h533.2a41 41 0 0 1 40.9 40.9"/>
  <defs>
    <clipPath id="a">
      <path d="m382 209 1 482h78V489l78 72h119l80-71h41v420H98V278z"/>
    </clipPath>
  </defs>
  <path fill="#efb822" d="M738 339.9v480.2a54 54 0 0 1-53.9 53.9H203.9a54 54 0 0 1-53.9-53.9V286h534.1a54 54 0 0 1 53.9 53.9" clip-path="url(#a)"/>
  <path fill="#fff" fill-rule="nonzero" d="m776.5 211.2 2.1.3c8.7 1.5 16.9 4.1 25.4 6.5v45l-14-8q-3.7-1.7-7.6-2.9l-1.9-.6c-15.8-4.7-34.6-6.4-49.9.6a20 20 0 0 0-9.6 9.9c-1.8 6.5-1 12.1 2 18 4.3 5.4 9.5 8.8 15.6 11.9l2.5 1.3q10.5 5.2 21.3 9.6c11.3 4.8 22.3 10 31.4 18.2l2.3 2a54 54 0 0 1 18 37c1 17.7-2.5 34.8-14.4 48.4a60 60 0 0 1-15.8 11.6l-2.5 1.4c-14.8 7.5-32.2 8.8-48.6 8.8h-1.7c-18-.1-46.6-.5-60.3-14.2v-47l9.2 6.1c18.9 12.7 40.5 19.8 63.4 15.7 7.3-1.5 13.4-3.7 17.9-10a21 21 0 0 0 2.1-15.9 31 31 0 0 0-16.4-18l-2.6-1.3-2.7-1.4q-11.6-5.7-23.5-10.6c-8.7-3.8-16.8-7.9-24.4-13.7l-1.3-1a57 57 0 0 1-22.1-39.1 59 59 0 0 1 9.7-41.5l3.8-4.4 1.7-2.1c21.6-23.7 61.2-25 90.8-20.8ZM483 214h166v38h-59v174h-47V252h-59l-1-1z"/>
  <circle cx="539" cy="663" r="27"/>
  <circle cx="658" cy="663" r="27"/>
</svg>
